<svg xmlns="http://www.w3.org/2000/svg" viewBox="1419 2035 30 23.333">
  <defs>
    <style>
      .cls-1 {
        fill: #dfdfdf;
      }
    </style>
  </defs>
  <path id="Path_2181" data-name="Path 2181" class="cls-1" d="M15,18.75a4.377,4.377,0,1,0,4.5,4.375A4.439,4.439,0,0,0,15,18.75Zm12-4.375H23.4a1.334,1.334,0,0,1-1.185-.83l-.931-2.715A1.334,1.334,0,0,0,20.1,10H9.9a1.334,1.334,0,0,0-1.185.83l-.931,2.715a1.334,1.334,0,0,1-1.185.83H3a2.968,2.968,0,0,0-3,2.917V30.417a2.968,2.968,0,0,0,3,2.917H27a2.968,2.968,0,0,0,3-2.917V17.292A2.968,2.968,0,0,0,27,14.375ZM15,30.417a7.295,7.295,0,1,1,0-14.583,7.295,7.295,0,1,1,0,14.583ZM25.95,19.331A1.021,1.021,0,1,1,27,18.31,1.036,1.036,0,0,1,25.95,19.331Z" transform="translate(1419 2025)"/>
</svg>
