<svg xmlns="http://www.w3.org/2000/svg" viewBox="1431.144 1683 19 16.937">
  <defs>
    <style>
      .cls-1 {
        fill: #8d8d8d;
      }
    </style>
  </defs>
  <g id="home" transform="translate(1433.001 1654.293)">
    <path id="Path_2182" data-name="Path 2182" class="cls-1" d="M18.8,34.487,9.791,27.893a.494.494,0,0,0-.583,0L.2,34.487a.494.494,0,0,0,.583.8L9.5,28.9l8.715,6.381a.494.494,0,0,0,.583-.8Z" transform="translate(-1.856 0.909)"/>
    <path id="Path_2183" data-name="Path 2183" class="cls-1" d="M70.769,232.543a.494.494,0,0,0-.494.494v7.858H66.326v-4.289a2.469,2.469,0,1,0-4.937,0v4.289H57.439v-7.858a.494.494,0,0,0-.987,0v8.352a.494.494,0,0,0,.494.494h4.937a.493.493,0,0,0,.492-.455.372.372,0,0,0,0-.038v-4.783a1.481,1.481,0,1,1,2.962,0v4.783a.363.363,0,0,0,0,.038.493.493,0,0,0,.492.456h4.937a.494.494,0,0,0,.494-.494v-8.352A.494.494,0,0,0,70.769,232.543Z" transform="translate(-56.213 -196.238)"/>
  </g>
</svg>
