<svg xmlns="http://www.w3.org/2000/svg" viewBox="1431.761 1760.327 14.766 21">
  <defs>
    <style>
      .cls-1 {
        fill: #8d8d8d;
      }
    </style>
  </defs>
  <g id="placeholder_1_" data-name="placeholder (1)" transform="translate(1355.761 1760.327)">
    <path id="Path_2184" data-name="Path 2184" class="cls-1" d="M83.383,0A7.384,7.384,0,0,0,77.1,11.265l5.861,9.444a.615.615,0,0,0,.523.291h0a.615.615,0,0,0,.523-.3l5.711-9.536A7.384,7.384,0,0,0,83.383,0Zm5.286,10.534L83.476,19.2l-5.328-8.586a6.156,6.156,0,1,1,10.52-.083Z"/>
    <path id="Path_2185" data-name="Path 2185" class="cls-1" d="M169.691,90a3.691,3.691,0,1,0,3.691,3.691A3.7,3.7,0,0,0,169.691,90Zm0,6.161a2.469,2.469,0,1,1,2.465-2.469A2.471,2.471,0,0,1,169.691,96.161Z" transform="translate(-86.309 -86.309)"/>
  </g>
</svg>
