<svg xmlns="http://www.w3.org/2000/svg" viewBox="1424.689 946.689 27.537 27.536">
  <defs>
    <style>
      .cls-1 {
        fill: #329e58;
        stroke: #329e58;
        stroke-width: 1px;
      }
    </style>
  </defs>
  <g id="phone-receiver" transform="matrix(0.921, 0.391, -0.391, 0.921, 1414.497, 947.827)">
    <g id="Group_1555" data-name="Group 1555" transform="translate(0 0.188)">
      <path id="Path_988" data-name="Path 988" class="cls-1" d="M18.991,15.183a.919.919,0,0,1-.282.805l-2.675,2.657a1.506,1.506,0,0,1-.473.342,1.952,1.952,0,0,1-.573.181q-.02,0-.121.01t-.261.01a9.267,9.267,0,0,1-1.237-.131,9.39,9.39,0,0,1-2.092-.644,17.555,17.555,0,0,1-2.806-1.54,20.923,20.923,0,0,1-3.339-2.818A22.051,22.051,0,0,1,2.8,11.4,18.931,18.931,0,0,1,1.311,9.054,12.633,12.633,0,0,1,.466,7.1a10.364,10.364,0,0,1-.382-1.51A4.988,4.988,0,0,1,0,4.6q.02-.362.02-.4A1.957,1.957,0,0,1,.2,3.62a1.508,1.508,0,0,1,.342-.473L3.222.47A.886.886,0,0,1,3.865.188a.75.75,0,0,1,.463.151A1.4,1.4,0,0,1,4.67.711L6.822,4.8a.98.98,0,0,1,.1.7,1.255,1.255,0,0,1-.342.644L5.6,7.132a.336.336,0,0,0-.07.131.5.5,0,0,0-.03.151,3.636,3.636,0,0,0,.362.966A8.869,8.869,0,0,0,6.6,9.557a13.071,13.071,0,0,0,1.428,1.6A13.326,13.326,0,0,0,9.638,12.6a9.292,9.292,0,0,0,1.177.755,3.126,3.126,0,0,0,.724.292l.251.05a.479.479,0,0,0,.131-.03.336.336,0,0,0,.131-.07L13.2,12.425a1.232,1.232,0,0,1,.845-.322,1.05,1.05,0,0,1,.543.121h.02l3.882,2.294A1.012,1.012,0,0,1,18.991,15.183Z" transform="translate(17.49 -7.612)"/>
    </g>
  </g>
</svg>
