<svg xmlns="http://www.w3.org/2000/svg" viewBox="1430 1922 19 18.99">
  <defs>
    <style>
      .cls-1 {
        fill: #8d8d8d;
      }
    </style>
  </defs>
  <g id="clock" transform="translate(1430 1921.832)">
    <g id="Group_1562" data-name="Group 1562" transform="translate(0 0.168)">
      <path id="Path_2186" data-name="Path 2186" class="cls-1" d="M18.242,5.965A9.308,9.308,0,0,0,13.183.926a9.338,9.338,0,0,0-3.7-.758A9.241,9.241,0,0,0,5.8.926,9.338,9.338,0,0,0,.748,5.965a9.491,9.491,0,0,0,0,7.386A9.358,9.358,0,0,0,5.8,18.4a9.242,9.242,0,0,0,3.688.758,9.341,9.341,0,0,0,3.7-.758,9.329,9.329,0,0,0,5.059-5.049,9.371,9.371,0,0,0,0-7.386Zm-1.517,7.885a8.335,8.335,0,0,1-3.054,3.044,8.182,8.182,0,0,1-4.186,1.122,8.045,8.045,0,0,1-3.241-.665,8.494,8.494,0,0,1-2.659-1.776A8.443,8.443,0,0,1,1.808,12.9a8.179,8.179,0,0,1-.654-3.252A8.167,8.167,0,0,1,2.265,5.476,8.339,8.339,0,0,1,5.309,2.433,8.119,8.119,0,0,1,9.484,1.311a8.182,8.182,0,0,1,4.186,1.122,8.36,8.36,0,0,1,3.054,3.044,8.119,8.119,0,0,1,1.122,4.176A8.2,8.2,0,0,1,16.725,13.849Z" transform="translate(0 -0.168)"/>
      <path id="Path_2187" data-name="Path 2187" class="cls-1" d="M288.267,116.884V111.5a.6.6,0,0,0-.6-.582.586.586,0,0,0-.571.582v5.464a.475.475,0,0,1,.021.083.543.543,0,0,0,.156.468l3.106,3.106a.591.591,0,0,0,.8,0,.56.56,0,0,0,0-.81Z" transform="translate(-278.18 -107.483)"/>
    </g>
  </g>
</svg>
